<?xml version="1.0" encoding="UTF-8"?> <svg xmlns="http://www.w3.org/2000/svg" id="Layer_1" data-name="Layer 1" viewBox="0 0 200 200"><defs><style>.cls-1{fill:#231f20;}.cls-2{fill:#eb2032;}.cls-3{fill:#c0c2c4;}</style></defs><path class="cls-1" d="M82.05,96.52c-3.79-.24-16.27,0-18.93,0H58.27v1.3l.71,2v37.56H69.92V122.07c1.42.06,3.43.12,6.09.12,8.88-.06,19-2.72,19.46-13.67S85.83,96.75,82.05,96.52ZM81,115.62c-2.13.59-7.39.36-11.12.36V102.79c3.61-.42,13.55-.89,14.85,3.43C86.31,111.25,83.41,115,81,115.62Z"></path><path class="cls-1" d="M172.26,113.43c-.71,0-1.42.06-2.13.12.12-1.65.35-4,.35-8.63a59.47,59.47,0,0,0-.35-8.4c.71,0,1.42.11,2.13.11s1.42-.06,2.13-.11a76.88,76.88,0,0,0-.3,8.4c0,4.61.18,7,.3,8.63C173.68,113.49,173,113.43,172.26,113.43Z"></path><path class="cls-1" d="M187.22,113.43c-.71,0-1.42.06-2.13.12.12-1.65.3-4,.3-8.63,0-3.85-.06-5.62-.18-6.81h-6A2.51,2.51,0,0,0,177,99.24l-.3-.06.48-2.72h.29c.59,0,1.07.06,1.84.06h15.79a15.83,15.83,0,0,0,1.89-.06h.3l.47,2.72-.23.06a2.53,2.53,0,0,0-2.25-1.13h-6c-.11,1.25-.11,3-.11,6.81,0,4.61.17,7,.29,8.63C188.64,113.49,187.87,113.43,187.22,113.43Z"></path><path class="cls-1" d="M57.2,137,56,135.44l-16.27-38c-.53-1.06-.47-.88-1.65-.88H24.79v1.3l.29.83L2.25,137.39H12l7.87-14.49H39.16l5.38,12.95.36.89a1,1,0,0,0,.94.65H57.2ZM23.07,116.86l7.63-14,5.86,14Z"></path><path class="cls-1" d="M178.65,135.91l-4.09-.47c-4.43-.53-14.55-12.19-21.53-20.17,7.1-8.7,13.78-16.68,13.78-16.68s1.84-1.9-.59-2.25a41.53,41.53,0,0,0-6.33.18c-4.67,5.67-8.1,9.76-11.35,13.66-2.84-3.19-5.39-6.39-7.87-9.11-1.54-1.66-2.6-3-4.67-3.9-1.84-.77-4.15-.65-6.63-.65H96.48v1.3l.71,2h0v37.56H135s1.77-2,3.61-4.38c.89-1.12,4.32-5.38,8.58-10.58,6.21,7.21,12.18,14.55,15.26,14.84,3.55.36,16.32.12,16.32.12Zm-47.74-5H107.72V119.47h22.42V113H107.72V102.9h22.12l12.84,14.32C142.62,117.28,132.62,129.23,130.91,130.88Z"></path><path class="cls-2" d="M167.41,89.65c-.12-.11-38-25.73-38-25.73l-2-1.3a.53.53,0,0,0-.59,0l-1.9,1.07L82.34,88.23s-.47.71,0,.6,30.94-14,39.87-18.16c1.07-.48,1.84-.83,2.19-1a.63.63,0,0,1,.47,0l1.78,1,33.18,20.88s4.86.29,6.57.23a.83.83,0,0,0,.41-.06C169.24,91.49,167.52,89.77,167.41,89.65Z"></path><path class="cls-3" d="M152.68,77.05l-3.79-2.6a.73.73,0,0,1-.06-1.12l8.76-7.81,10.76,8.87,4-3.61L196.92,90.9h0a1.68,1.68,0,0,1-1.48-.18L173.91,77.53a1.4,1.4,0,0,0-1.65.12l-3.2,2.6a1.61,1.61,0,0,1-2,0l-8.28-6.8a1.15,1.15,0,0,0-1.48,0Z"></path></svg> 